ffmpeg started on 2025-06-04 at 20:03:51
Report written to "D:\Convert\FFMetrics\reports\psnr_report-6.txt"
Log level: 32
Command line:
ffmpeg -hide_banner -nostdin -i "G:\\\xc0\xed\xe8\xec\xe5\\\xce\xed\xe3\xee\xe8\xed\xe3\xe8\\!_36_\xce\xf1\xe5\xed\xfc_2024\\DreamCast\\\xc3\xf0\xe8\xe1\xed\xee\xe9 \xf9\xe5\xed\xee\xea\\[DC] Kinoko Inu - 03_Telegram_HEVC.mkv" -i "G:\\\xc0\xed\xe8\xec\xe5\\\xce\xed\xe3\xee\xe8\xed\xe3\xe8\\!_36_\xce\xf1\xe5\xed\xfc_2024\\DreamCast\\\xc3\xf0\xe8\xe1\xed\xee\xe9 \xf9\xe5\xed\xee\xea\\[DC] Kinoko Inu - 03_Telegram.mp4" -lavfi "[0:v]settb=AVTB,setpts=PTS-STARTPTS,format=pix_fmts=yuv420p10,fps=24000/1001,scale=1920:1080:flags=bicubic[main];[1:v]settb=AVTB,setpts=PTS-STARTPTS,format=pix_fmts=yuv420p,fps=24000/1001,scale=1920:1080:flags=bicubic[ref];[main][ref]psnr=eof_action=endall:stats_file='D\\:/Convert/FFMetrics/logs/psnr_logfile-6.txt'" -f null -
Input #0, matroska,webm, from 'G:\Аниме\Онгоинги\!_36_Осень_2024\DreamCast\Грибной щенок\[DC] Kinoko Inu - 03_Telegram_HEVC.mkv':
  Metadata:
    COMPATIBLE_BRANDS: isomiso2avc1mp41
    MAJOR_BRAND     : isom
    MINOR_VERSION   : 512
    ENCODER         : Lavf61.7.100
  Duration: 00:23:51.64, start: -0.021000, bitrate: 897 kb/s
  Stream #0:0: Video: hevc (Main 10), yuv420p10le(tv, bt709, progressive), 1920x1080 [SAR 1:1 DAR 16:9], 23.98 fps, 23.98 tbr, 1k tbn (default)
      Metadata:
        HANDLER_NAME    : VideoHandler
        VENDOR_ID       : [0][0][0][0]
        ENCODER         : Lavc61.19.100 libx265
        BPS             : 700517
        DURATION        : 00:23:51.513708333
        NUMBER_OF_FRAMES: 34322
        NUMBER_OF_BYTES : 125349991
        _STATISTICS_WRITING_APP: mkvpropedit v66.0.0 ('Josie') 64-bit
        _STATISTICS_WRITING_DATE_UTC: 2025-05-30 09:53:43
        _STATISTICS_TAGS: BPS DURATION NUMBER_OF_FRAMES NUMBER_OF_BYTES
  Stream #0:1: Audio: aac (LC), 48000 Hz, stereo, fltp (default)
      Metadata:
        HANDLER_NAME    : SoundHandler
        VENDOR_ID       : [0][0][0][0]
        ENCODER         : Lavc61.19.100 aac
        BPS             : 193458
        DURATION        : 00:23:51.637000000
        NUMBER_OF_FRAMES: 67109
        NUMBER_OF_BYTES : 34620356
        _STATISTICS_WRITING_APP: mkvpropedit v66.0.0 ('Josie') 64-bit
        _STATISTICS_WRITING_DATE_UTC: 2025-05-30 09:53:43
        _STATISTICS_TAGS: BPS DURATION NUMBER_OF_FRAMES NUMBER_OF_BYTES
Input #1, mov,mp4,m4a,3gp,3g2,mj2, from 'G:\Аниме\Онгоинги\!_36_Осень_2024\DreamCast\Грибной щенок\[DC] Kinoko Inu - 03_Telegram.mp4':
  Metadata:
    major_brand     : isom
    minor_version   : 512
    compatible_brands: isomiso2avc1mp41
    encoder         : Lavf61.1.100
  Duration: 00:23:51.58, start: 0.000000, bitrate: 3749 kb/s
  Stream #1:0[0x1](und): Video: h264 (High) (avc1 / 0x31637661), yuv420p(tv, bt709, progressive), 1920x1080 [SAR 1:1 DAR 16:9], 3602 kb/s, 23.98 fps, 23.98 tbr, 24k tbn (default)
      Metadata:
        handler_name    : VideoHandler
        vendor_id       : [0][0][0][0]
        encoder         : Lavc61.3.100 h264_qsv
  Stream #1:1[0x2](und): Audio: aac (HE-AACv2) (mp4a / 0x6134706D), 48000 Hz, stereo, fltp, 144 kb/s (default)
      Metadata:
        handler_name    : SoundHandler
        vendor_id       : [0][0][0][0]
Stream mapping:
  Stream #0:0 (hevc) -> settb:default
  Stream #1:0 (h264) -> settb:default
  psnr:default -> Stream #0:0 (wrapped_avframe)
  Stream #0:1 -> #0:1 (aac (native) -> pcm_s16le (native))
Output #0, null, to 'pipe:':
  Metadata:
    COMPATIBLE_BRANDS: isomiso2avc1mp41
    MAJOR_BRAND     : isom
    MINOR_VERSION   : 512
    encoder         : Lavf61.7.100
  Stream #0:0: Video: wrapped_avframe, yuv420p10le(tv, bt709, progressive), 1920x1080 [SAR 1:1 DAR 16:9], q=2-31, 200 kb/s, 23.98 fps, 23.98 tbn
      Metadata:
        encoder         : Lavc61.19.100 wrapped_avframe
  Stream #0:1: Audio: pcm_s16le, 48000 Hz, stereo, s16, 1536 kb/s (default)
      Metadata:
        HANDLER_NAME    : SoundHandler
        VENDOR_ID       : [0][0][0][0]
        _STATISTICS_TAGS: BPS DURATION NUMBER_OF_FRAMES NUMBER_OF_BYTES
        BPS             : 193458
        DURATION        : 00:23:51.637000000
        NUMBER_OF_FRAMES: 67109
        NUMBER_OF_BYTES : 34620356
        _STATISTICS_WRITING_APP: mkvpropedit v66.0.0 ('Josie') 64-bit
        _STATISTICS_WRITING_DATE_UTC: 2025-05-30 09:53:43
        encoder         : Lavc61.19.100 pcm_s16le
frame=  171 fps=0.0 q=-0.0 size=N/A time=00:00:07.13 bitrate=N/A speed=  14x    frame=  415 fps=401 q=-0.0 size=N/A time=00:00:17.30 bitrate=N/A speed=16.7x    frame=  628 fps=407 q=-0.0 size=N/A time=00:00:26.19 bitrate=N/A speed=  17x    frame=  861 fps=420 q=-0.0 size=N/A time=00:00:35.91 bitrate=N/A speed=17.5x    frame= 1122 fps=436 q=-0.0 size=N/A time=00:00:46.79 bitrate=N/A speed=18.2x    frame= 1395 fps=450 q=-0.0 size=N/A time=00:00:58.18 bitrate=N/A speed=18.8x    frame= 1663 fps=461 q=-0.0 size=N/A time=00:01:09.36 bitrate=N/A speed=19.2x    frame= 1918 fps=466 q=-0.0 size=N/A time=00:01:19.99 bitrate=N/A speed=19.4x    frame= 2162 fps=466 q=-0.0 size=N/A time=00:01:30.21 bitrate=N/A speed=19.4x    frame= 2412 fps=469 q=-0.0 size=N/A time=00:01:40.60 bitrate=N/A speed=19.5x    frame= 2669 fps=471 q=-0.0 size=N/A time=00:01:51.31 bitrate=N/A speed=19.6x    frame= 2910 fps=471 q=-0.0 size=N/A time=00:02:01.37 bitrate=N/A speed=19.6x    frame= 3172 fps=473 q=-0.0 size=N/A time=00:02:12.29 bitrate=N/A speed=19.7x    frame= 3393 fps=471 q=-0.0 size=N/A time=00:02:21.51 bitrate=N/A speed=19.6x    frame= 3628 fps=469 q=-0.0 size=N/A time=00:02:31.31 bitrate=N/A speed=19.6x    frame= 3812 fps=463 q=-0.0 size=N/A time=00:02:38.99 bitrate=N/A speed=19.3x    frame= 4052 fps=463 q=-0.0 size=N/A time=00:02:49.00 bitrate=N/A speed=19.3x    frame= 4259 fps=459 q=-0.0 size=N/A time=00:02:57.63 bitrate=N/A speed=19.1x    frame= 4478 fps=457 q=-0.0 size=N/A time=00:03:06.76 bitrate=N/A speed=19.1x    frame= 4723 fps=458 q=-0.0 size=N/A time=00:03:16.98 bitrate=N/A speed=19.1x    frame= 4951 fps=458 q=-0.0 size=N/A time=00:03:26.49 bitrate=N/A speed=19.1x    frame= 5173 fps=456 q=-0.0 size=N/A time=00:03:35.75 bitrate=N/A speed=  19x    frame= 5383 fps=454 q=-0.0 size=N/A time=00:03:44.51 bitrate=N/A speed=18.9x    frame= 5630 fps=455 q=-0.0 size=N/A time=00:03:54.81 bitrate=N/A speed=  19x    frame= 5859 fps=455 q=-0.0 size=N/A time=00:04:04.36 bitrate=N/A speed=  19x    frame= 6100 fps=455 q=-0.0 size=N/A time=00:04:14.42 bitrate=N/A speed=  19x    frame= 6370 fps=458 q=-0.0 size=N/A time=00:04:25.68 bitrate=N/A speed=19.1x    frame= 6622 fps=459 q=-0.0 size=N/A time=00:04:36.19 bitrate=N/A speed=19.1x    frame= 6888 fps=461 q=-0.0 size=N/A time=00:04:47.28 bitrate=N/A speed=19.2x    frame= 7142 fps=462 q=-0.0 size=N/A time=00:04:57.88 bitrate=N/A speed=19.3x    frame= 7371 fps=461 q=-0.0 size=N/A time=00:05:07.43 bitrate=N/A speed=19.2x    frame= 7599 fps=461 q=-0.0 size=N/A time=00:05:16.94 bitrate=N/A speed=19.2x    frame= 7856 fps=462 q=-0.0 size=N/A time=00:05:27.66 bitrate=N/A speed=19.3x    frame= 8130 fps=464 q=-0.0 size=N/A time=00:05:39.08 bitrate=N/A speed=19.4x    frame= 8407 fps=466 q=-0.0 size=N/A time=00:05:50.64 bitrate=N/A speed=19.4x    frame= 8679 fps=468 q=-0.0 size=N/A time=00:06:01.98 bitrate=N/A speed=19.5x    frame= 8943 fps=469 q=-0.0 size=N/A time=00:06:12.99 bitrate=N/A speed=19.6x    frame= 9163 fps=468 q=-0.0 size=N/A time=00:06:22.17 bitrate=N/A speed=19.5x    frame= 9402 fps=468 q=-0.0 size=N/A time=00:06:32.14 bitrate=N/A speed=19.5x    frame= 9675 fps=469 q=-0.0 size=N/A time=00:06:43.52 bitrate=N/A speed=19.6x    frame= 9936 fps=470 q=-0.0 size=N/A time=00:06:54.41 bitrate=N/A speed=19.6x    frame=10186 fps=471 q=-0.0 size=N/A time=00:07:04.84 bitrate=N/A speed=19.6x    frame=10455 fps=472 q=-0.0 size=N/A time=00:07:16.06 bitrate=N/A speed=19.7x    frame=10722 fps=473 q=-0.0 size=N/A time=00:07:27.19 bitrate=N/A speed=19.7x    frame=10987 fps=473 q=-0.0 size=N/A time=00:07:38.24 bitrate=N/A speed=19.7x    frame=11241 fps=474 q=-0.0 size=N/A time=00:07:48.84 bitrate=N/A speed=19.8x    frame=11492 fps=474 q=-0.0 size=N/A time=00:07:59.31 bitrate=N/A speed=19.8x    frame=11768 fps=475 q=-0.0 size=N/A time=00:08:10.82 bitrate=N/A speed=19.8x    frame=12028 fps=476 q=-0.0 size=N/A time=00:08:21.66 bitrate=N/A speed=19.9x    frame=12268 fps=476 q=-0.0 size=N/A time=00:08:31.67 bitrate=N/A speed=19.9x    frame=12510 fps=476 q=-0.0 size=N/A time=00:08:41.77 bitrate=N/A speed=19.8x    frame=12752 fps=476 q=-0.0 size=N/A time=00:08:51.86 bitrate=N/A speed=19.8x    frame=13009 fps=476 q=-0.0 size=N/A time=00:09:02.58 bitrate=N/A speed=19.9x    frame=13281 fps=477 q=-0.0 size=N/A time=00:09:13.92 bitrate=N/A speed=19.9x    frame=13543 fps=478 q=-0.0 size=N/A time=00:09:24.85 bitrate=N/A speed=19.9x    frame=13763 fps=477 q=-0.0 size=N/A time=00:09:34.03 bitrate=N/A speed=19.9x    frame=13971 fps=476 q=-0.0 size=N/A time=00:09:42.70 bitrate=N/A speed=19.8x    frame=14217 fps=475 q=-0.0 size=N/A time=00:09:53.00 bitrate=N/A speed=19.8x    frame=14466 fps=476 q=-0.0 size=N/A time=00:10:03.35 bitrate=N/A speed=19.8x    frame=14716 fps=476 q=-0.0 size=N/A time=00:10:13.77 bitrate=N/A speed=19.8x    frame=14986 fps=476 q=-0.0 size=N/A time=00:10:25.04 bitrate=N/A speed=19.9x    frame=15238 fps=477 q=-0.0 size=N/A time=00:10:35.55 bitrate=N/A speed=19.9x    frame=15481 fps=477 q=-0.0 size=N/A time=00:10:45.68 bitrate=N/A speed=19.9x    frame=15750 fps=477 q=-0.0 size=N/A time=00:10:56.90 bitrate=N/A speed=19.9x    frame=16008 fps=478 q=-0.0 size=N/A time=00:11:07.66 bitrate=N/A speed=19.9x    frame=16277 fps=478 q=-0.0 size=N/A time=00:11:18.88 bitrate=N/A speed=19.9x    frame=16544 fps=479 q=-0.0 size=N/A time=00:11:30.02 bitrate=N/A speed=  20x    frame=16815 fps=480 q=-0.0 size=N/A time=00:11:41.32 bitrate=N/A speed=  20x    frame=17077 fps=480 q=-0.0 size=N/A time=00:11:52.25 bitrate=N/A speed=  20x    frame=17304 fps=479 q=-0.0 size=N/A time=00:12:01.72 bitrate=N/A speed=  20x    frame=17566 fps=480 q=-0.0 size=N/A time=00:12:12.64 bitrate=N/A speed=  20x    frame=17828 fps=480 q=-0.0 size=N/A time=00:12:23.57 bitrate=N/A speed=  20x    frame=18102 fps=481 q=-0.0 size=N/A time=00:12:35.00 bitrate=N/A speed=20.1x    frame=18390 fps=482 q=-0.0 size=N/A time=00:12:47.01 bitrate=N/A speed=20.1x    frame=18666 fps=483 q=-0.0 size=N/A time=00:12:58.52 bitrate=N/A speed=20.1x    frame=18927 fps=483 q=-0.0 size=N/A time=00:13:09.41 bitrate=N/A speed=20.1x    frame=19143 fps=482 q=-0.0 size=N/A time=00:13:18.42 bitrate=N/A speed=20.1x    frame=19379 fps=482 q=-0.0 size=N/A time=00:13:28.26 bitrate=N/A speed=20.1x    frame=19578 fps=481 q=-0.0 size=N/A time=00:13:36.56 bitrate=N/A speed=  20x    frame=19844 fps=481 q=-0.0 size=N/A time=00:13:47.66 bitrate=N/A speed=20.1x    frame=20109 fps=482 q=-0.0 size=N/A time=00:13:58.71 bitrate=N/A speed=20.1x    frame=20354 fps=482 q=-0.0 size=N/A time=00:14:08.93 bitrate=N/A speed=20.1x    frame=20565 fps=481 q=-0.0 size=N/A time=00:14:17.73 bitrate=N/A speed=  20x    frame=20820 fps=481 q=-0.0 size=N/A time=00:14:28.36 bitrate=N/A speed=  20x    frame=21078 fps=481 q=-0.0 size=N/A time=00:14:39.12 bitrate=N/A speed=20.1x    frame=21327 fps=481 q=-0.0 size=N/A time=00:14:49.55 bitrate=N/A speed=20.1x    frame=21597 fps=482 q=-0.0 size=N/A time=00:15:00.77 bitrate=N/A speed=20.1x    frame=21853 fps=482 q=-0.0 size=N/A time=00:15:11.45 bitrate=N/A speed=20.1x    frame=22114 fps=482 q=-0.0 size=N/A time=00:15:22.33 bitrate=N/A speed=20.1x    frame=22352 fps=482 q=-0.0 size=N/A time=00:15:32.26 bitrate=N/A speed=20.1x    frame=22604 fps=482 q=-0.0 size=N/A time=00:15:42.77 bitrate=N/A speed=20.1x    frame=22850 fps=482 q=-0.0 size=N/A time=00:15:53.03 bitrate=N/A speed=20.1x    frame=23095 fps=482 q=-0.0 size=N/A time=00:16:03.25 bitrate=N/A speed=20.1x    frame=23325 fps=481 q=-0.0 size=N/A time=00:16:12.84 bitrate=N/A speed=20.1x    frame=23538 fps=481 q=-0.0 size=N/A time=00:16:21.73 bitrate=N/A speed=  20x    frame=23704 fps=479 q=-0.0 size=N/A time=00:16:28.65 bitrate=N/A speed=  20x    frame=23868 fps=477 q=-0.0 size=N/A time=00:16:35.49 bitrate=N/A speed=19.9x    frame=24130 fps=478 q=-0.0 size=N/A time=00:16:46.42 bitrate=N/A speed=19.9x    frame=24323 fps=476 q=-0.0 size=N/A time=00:16:54.47 bitrate=N/A speed=19.9x    frame=24499 fps=475 q=-0.0 size=N/A time=00:17:01.81 bitrate=N/A speed=19.8x    frame=24760 fps=475 q=-0.0 size=N/A time=00:17:12.69 bitrate=N/A speed=19.8x    frame=25009 fps=475 q=-0.0 size=N/A time=00:17:23.08 bitrate=N/A speed=19.8x    frame=25246 fps=475 q=-0.0 size=N/A time=00:17:32.96 bitrate=N/A speed=19.8x    frame=25468 fps=475 q=-0.0 size=N/A time=00:17:42.22 bitrate=N/A speed=19.8x    frame=25667 fps=474 q=-0.0 size=N/A time=00:17:50.52 bitrate=N/A speed=19.8x    frame=25891 fps=474 q=-0.0 size=N/A time=00:17:59.87 bitrate=N/A speed=19.8x    frame=26136 fps=474 q=-0.0 size=N/A time=00:18:10.08 bitrate=N/A speed=19.8x    frame=26378 fps=474 q=-0.0 size=N/A time=00:18:20.18 bitrate=N/A speed=19.8x    frame=26616 fps=474 q=-0.0 size=N/A time=00:18:30.10 bitrate=N/A speed=19.7x    frame=26843 fps=473 q=-0.0 size=N/A time=00:18:39.57 bitrate=N/A speed=19.7x    frame=27093 fps=473 q=-0.0 size=N/A time=00:18:50.00 bitrate=N/A speed=19.7x    frame=27360 fps=474 q=-0.0 size=N/A time=00:19:01.14 bitrate=N/A speed=19.8x    frame=27612 fps=474 q=-0.0 size=N/A time=00:19:11.65 bitrate=N/A speed=19.8x    frame=27875 fps=474 q=-0.0 size=N/A time=00:19:22.61 bitrate=N/A speed=19.8x    frame=28133 fps=474 q=-0.0 size=N/A time=00:19:33.38 bitrate=N/A speed=19.8x    frame=28377 fps=474 q=-0.0 size=N/A time=00:19:43.55 bitrate=N/A speed=19.8x    frame=28581 fps=474 q=-0.0 size=N/A time=00:19:52.06 bitrate=N/A speed=19.8x    frame=28848 fps=474 q=-0.0 size=N/A time=00:20:03.20 bitrate=N/A speed=19.8x    frame=29117 fps=474 q=-0.0 size=N/A time=00:20:14.42 bitrate=N/A speed=19.8x    frame=29364 fps=475 q=-0.0 size=N/A time=00:20:24.72 bitrate=N/A speed=19.8x    frame=29622 fps=475 q=-0.0 size=N/A time=00:20:35.48 bitrate=N/A speed=19.8x    frame=29879 fps=475 q=-0.0 size=N/A time=00:20:46.20 bitrate=N/A speed=19.8x    frame=30136 fps=475 q=-0.0 size=N/A time=00:20:56.92 bitrate=N/A speed=19.8x    frame=30370 fps=475 q=-0.0 size=N/A time=00:21:06.68 bitrate=N/A speed=19.8x    frame=30585 fps=474 q=-0.0 size=N/A time=00:21:15.64 bitrate=N/A speed=19.8x    frame=30862 fps=475 q=-0.0 size=N/A time=00:21:27.20 bitrate=N/A speed=19.8x    frame=31131 fps=475 q=-0.0 size=N/A time=00:21:38.42 bitrate=N/A speed=19.8x    frame=31393 fps=476 q=-0.0 size=N/A time=00:21:49.39 bitrate=N/A speed=19.8x    frame=31644 fps=476 q=-0.0 size=N/A time=00:21:59.81 bitrate=N/A speed=19.8x    frame=31882 fps=476 q=-0.0 size=N/A time=00:22:09.74 bitrate=N/A speed=19.8x    frame=32143 fps=476 q=-0.0 size=N/A time=00:22:20.63 bitrate=N/A speed=19.8x    frame=32410 fps=476 q=-0.0 size=N/A time=00:22:31.76 bitrate=N/A speed=19.9x    frame=32659 fps=476 q=-0.0 size=N/A time=00:22:42.15 bitrate=N/A speed=19.9x    frame=32910 fps=476 q=-0.0 size=N/A time=00:22:52.62 bitrate=N/A speed=19.9x    frame=33170 fps=476 q=-0.0 size=N/A time=00:23:03.46 bitrate=N/A speed=19.9x    frame=33396 fps=476 q=-0.0 size=N/A time=00:23:12.89 bitrate=N/A speed=19.9x    frame=33655 fps=476 q=-0.0 size=N/A time=00:23:23.69 bitrate=N/A speed=19.9x    frame=33891 fps=476 q=-0.0 size=N/A time=00:23:33.53 bitrate=N/A speed=19.9x    frame=34168 fps=477 q=-0.0 size=N/A time=00:23:45.09 bitrate=N/A speed=19.9x    [Parsed_psnr_10 @ 000002243e43a840] PSNR y:48.922781 u:50.847171 v:51.142397 average:49.509420 min:40.926281 max:inf
[out#0/null @ 000002243dacffc0] video:14748KiB audio:268436KiB subtitle:0KiB other streams:0KiB global headers:0KiB muxing overhead: unknown
frame=34322 fps=477 q=-0.0 Lsize=N/A time=00:23:51.51 bitrate=N/A speed=19.9x    
